<?xml version="1.0" encoding="UTF-8" standalone="no"?>
<svg
   xmlns:dc="http://purl.org/dc/elements/1.1/"
   xmlns:cc="http://creativecommons.org/ns#"
   xmlns:rdf="http://www.w3.org/1999/02/22-rdf-syntax-ns#"
   xmlns:svg="http://www.w3.org/2000/svg"
   xmlns="http://www.w3.org/2000/svg"
   xmlns:sodipodi="http://sodipodi.sourceforge.net/DTD/sodipodi-0.dtd"
   xmlns:inkscape="http://www.inkscape.org/namespaces/inkscape"
   inkscape:version="1.0.2-2 (e86c870879, 2021-01-15)"
   sodipodi:docname="dino_indent.svg"
   id="svg8"
   version="1.1"
   viewBox="0 0 210 297"
   height="297mm"
   width="210mm">
  <defs
     id="defs2" />
  <sodipodi:namedview
     id="base"
     pagecolor="#ffffff"
     bordercolor="#666666"
     borderopacity="1.0"
     inkscape:pageopacity="0.0"
     inkscape:pageshadow="2"
     inkscape:zoom="2.8284271"
     inkscape:cx="32.546234"
     inkscape:cy="523.21825"
     inkscape:document-units="mm"
     inkscape:current-layer="layer1"
     inkscape:document-rotation="0"
     showgrid="false"
     inkscape:window-width="2560"
     inkscape:window-height="1361"
     inkscape:window-x="-9"
     inkscape:window-y="168"
     inkscape:window-maximized="1"
     inkscape:snap-page="true"
     inkscape:object-nodes="false"
     inkscape:snap-object-midpoints="false"
     inkscape:snap-center="true"
     inkscape:snap-smooth-nodes="false"
     inkscape:snap-midpoints="true"
     inkscape:snap-bbox="false"
     inkscape:snap-intersection-paths="false" />
  <metadata
     id="metadata5">
    <rdf:RDF>
      <cc:Work
         rdf:about="">
        <dc:format>image/svg+xml</dc:format>
        <dc:type
           rdf:resource="http://purl.org/dc/dcmitype/StillImage" />
        <dc:title></dc:title>
      </cc:Work>
    </rdf:RDF>
  </metadata>
  <g
     inkscape:label="Lager 1"
     inkscape:groupmode="layer"
     id="layer1">
    <path
       style="color:#000000;font-style:normal;font-variant:normal;font-weight:normal;font-stretch:normal;font-size:medium;line-height:normal;font-family:sans-serif;font-variant-ligatures:normal;font-variant-position:normal;font-variant-caps:normal;font-variant-numeric:normal;font-variant-alternates:normal;font-variant-east-asian:normal;font-feature-settings:normal;font-variation-settings:normal;text-indent:0;text-align:start;text-decoration:none;text-decoration-line:none;text-decoration-style:solid;text-decoration-color:#000000;letter-spacing:normal;word-spacing:normal;text-transform:none;writing-mode:lr-tb;direction:ltr;text-orientation:mixed;dominant-baseline:auto;baseline-shift:baseline;text-anchor:start;white-space:normal;shape-padding:0;shape-margin:0;inline-size:0;clip-rule:nonzero;display:inline;overflow:visible;visibility:visible;opacity:1;isolation:auto;mix-blend-mode:normal;color-interpolation:sRGB;color-interpolation-filters:linearRGB;solid-color:#000000;solid-opacity:1;vector-effect:none;fill:#d96f88;fill-opacity:0.433645;fill-rule:nonzero;stroke:none;stroke-linecap:butt;stroke-linejoin:miter;stroke-miterlimit:4;stroke-dasharray:none;stroke-dashoffset:0;stroke-opacity:1;paint-order:stroke markers fill;color-rendering:auto;image-rendering:auto;shape-rendering:auto;text-rendering:auto;enable-background:accumulate;stop-color:#000000;stop-opacity:1"
       d="m 44.509888,141.55859 c -10.348543,0.19161 -20.506945,5.62117 -26.657064,13.51035 -0.002,0.004 -0.01059,0.0142 -0.01297,0.0172 -5.872851,7.17171 -9.2733165,16.00309 -11.7343752,24.76758 -0.00469,0.005 -0.00543,0.0117 -0.00815,0.0175 -4.1395473,15.07015 -4.7933007,31.02664 -2.7867687,46.48255 v 0.002 0.002 c 1.8142645,12.85966 7.0984759,25.18547 14.1855469,36.08008 1.199767,2.3962 0.893842,4.99233 0.236328,7.51367 -0.0023,0.007 -0.0043,0.0135 -0.0064,0.0202 -0.976101,4.14376 -3.016723,8.30403 -2.556162,12.89406 -0.0016,0.006 0.0013,0.012 0.002,0.018 0.423326,2.95981 2.798384,5.32441 5.726563,5.92188 3.606208,0.84883 7.353643,0.86609 10.933593,0.71289 l 0.01367,-0.002 h 0.01367 c 2.306601,-0.23607 4.379695,-0.56772 5.917969,-2.15039 l 0.0078,-0.008 0.0059,-0.006 c 1.756657,-1.96255 1.900241,-4.44423 2.064453,-6.70508 0.227635,-1.60962 0.883915,-3.32894 2.228515,-4.24218 0.0039,-0.003 0.0079,-0.005 0.0118,-0.008 2.138091,-1.55919 4.9459,-1.68078 7.509766,-1.1582 0.0049,-0.002 0.0092,0.001 0.0137,0.002 3.882656,0.67807 7.818085,1.76172 11.996093,1.4961 4.403109,-0.15076 8.619393,-1.3434 12.833985,-1.16406 2.989054,0.25103 5.026439,2.60881 5.833984,5.04492 7.91e-4,0.005 0.0027,0.009 0.004,0.014 1.186657,3.20801 0.900324,6.92808 1.816407,10.43359 -0.0014,0.0431 0.02993,0.0728 0.04492,0.1093 0.918536,1.60913 1.926702,2.36645 2.888671,2.72461 0.96197,0.35815 1.832344,0.3462 2.484375,0.51953 0.02439,0.014 0.05209,0.009 0.07812,0.0137 3.333354,0.28637 6.309373,0.34963 9.4375,-0.27734 0.0135,-10e-4 0.02604,-0.007 0.03906,-0.01 1.90485,-0.55752 4.018511,-1.82131 4.520341,-3.96553 0.001,-0.004 0.006,-0.0132 0.007,-0.0172 0.80257,-3.89685 0.16814,-7.52527 1.58674,-10.79239 0.002,-0.006 0.005,-0.0123 0.007,-0.0183 0.62024,-1.49458 2.21082,-2.41624 3.79296,-2.22461 0.007,-10e-4 0.014,10e-4 0.0211,0.002 2.05814,0.15325 3.67008,1.87216 5.40039,3.25586 4.48583,3.97944 10.05421,6.7623 15.83594,8.19531 3.22891,0.80722 6.53,1.24508 9.8789,1.01562 h 0.014 c 0.45072,-0.0447 1.02354,-0.16969 1.51954,-0.45898 0.24799,-0.14465 0.4814,-0.33427 0.64453,-0.59961 0.16313,-0.26534 0.23669,-0.60836 0.17578,-0.95899 l -0.002,-0.0156 -0.004,-0.0156 c -0.16693,-0.6816 -0.70229,-1.08856 -1.20899,-1.36329 -0.50669,-0.27473 -1.03059,-0.46489 -1.33593,-0.66406 l -0.0137,-0.008 -0.0117,-0.008 c -3.49791,-1.96251 -7.36264,-4.12239 -10.44532,-7.32032 -4.09072,-4.67368 -6.29983,-10.7566 -7.16015,-16.91015 10e-4,-0.006 -0.001,-0.0107 -0.002,-0.016 -1.85852,-10.33119 -3.53773,-20.92777 -8.07813,-30.59179 l -0.009,-0.0134 c -3.44819,-7.45543 -8.8388,-14.04299 -15.740825,-18.55894 -6.321368,-4.28539 -13.711588,-6.75007 -21.171875,-8.07227 l -0.01557,-0.003 c -9.641287,-1.77009 -20.285061,-1.64248 -28.994149,-2.99093 -0.0049,0.002 -0.0092,-10e-4 -0.0137,-0.002 -4.144374,-0.51466 -8.449103,-3.52326 -10.957741,-7.53526 -2.508639,-4.012 -3.18172,-9.53995 -2.725893,-14.78329 0.411201,-3.16537 1.460848,-6.32579 3.24414,-8.96094 2.904636,-3.57499 8.216254,-4.71567 12.441407,-2.96875 l 0.01758,0.008 0.01953,0.006 c 2.815244,0.88594 6.106024,0.8607 8.632812,-0.9668 3.912931,-2.56224 5.867592,-7.66724 5.00586,-12.20313 -0.928516,-5.42092 -5.209146,-9.6613 -10.595362,-11.22461 l -0.0101,-0.002 c -2.232547,-0.67593 -4.521318,-0.88325 -6.818359,-0.83594 z m 0.03308,0.89844 h 0.03995 c 2.232175,-0.0461 4.386607,0.15827 6.50692,0.80078 0.0024,0.004 0.0075,0.001 0.01123,0.002 5.094646,1.47719 9.101574,5.47274 9.963468,10.51953 l 0.002,0.004 v 0.004 c 0.792548,4.16773 -1.049548,8.95776 -4.61914,11.29101 l -0.0098,0.006 -0.0098,0.006 c -2.227783,1.61724 -5.222926,1.66718 -7.845703,0.8418 l 0.03711,0.0137 c -4.601375,-1.90247 -10.31661,-0.68244 -13.496094,3.24414 l -0.01172,0.0156 -0.01172,0.0156 c -1.88754,2.78143 -2.977401,6.08423 -3.404297,9.37696 -0.0028,0.006 -0.0013,0.012 -0.002,0.018 -0.469245,5.3742 0.197115,11.09235 3.017579,15.50586 2.489109,4.08495 6.959639,7.23798 11.447265,7.79688 0.0014,1.7e-4 0.01419,0.002 0.01559,0.002 8.823683,1.36448 19.450149,1.24179 28.962917,2.98828 l 0.01647,0.002 c 7.374447,1.30698 14.631904,3.73623 20.817562,7.93153 0.0038,0.004 0.0067,0.008 0.01003,0.0123 6.746405,4.41413 12.032655,10.86444 15.415445,18.17958 l 0.006,0.0134 c 4.46969,9.51239 6.14697,20.02491 8.00782,30.36914 l -0.002,-0.0176 c 0.87894,6.28667 3.13694,12.54527 7.38283,17.39062 0.004,0.006 0.009,0.0107 0.014,0.016 3.19598,3.31752 7.14107,5.50981 10.63281,7.46875 0.45197,0.29481 0.9794,0.47591 1.39845,0.70312 0.41376,0.22435 0.66893,0.44959 0.75389,0.77539 0.0189,0.1354 0.003,0.22394 -0.0527,0.31446 -0.0595,0.0967 -0.17288,0.20014 -0.33203,0.29297 -0.31782,0.18536 -0.80192,0.30509 -1.15038,0.33984 -3.22667,0.21953 -6.42852,-0.20235 -9.5879,-0.99219 -5.64905,-1.39984 -11.09365,-4.12355 -15.45898,-7.99609 -0.005,-0.006 -0.012,-0.0107 -0.018,-0.016 -1.64884,-1.31562 -3.39367,-3.26724 -5.89843,-3.46093 -1.98897,-0.23798 -3.94733,0.9019 -4.72461,2.77148 -1.54625,3.56683 -0.88985,7.2833 -1.64649,10.9668 -0.38917,1.64901 -2.173341,2.79628 -3.884773,3.30078 -2.994732,0.59668 -5.861647,0.54312 -9.144532,0.26172 -0.801203,-0.20183 -1.58156,-0.19815 -2.339844,-0.48047 -0.767337,-0.2857 -1.558418,-0.85406 -2.386718,-2.28125 -0.843616,-3.28642 -0.563471,-7.01467 -1.832032,-10.44922 -0.898414,-2.70005 -3.193429,-5.36569 -6.613281,-5.65039 -0.0056,-0.003 -0.01172,-0.001 -0.0176,-0.002 -4.412676,-0.19088 -8.658935,1.02066 -12.921875,1.16601 h -0.0137 c -3.983984,0.25491 -7.832871,-0.79398 -11.769995,-1.48242 -0.0013,-2.6e-4 -0.0132,0 -0.0132,0 -2.713116,-0.55233 -5.792103,-0.44994 -8.210937,1.31055 -1.652945,1.12698 -2.359591,3.10108 -2.607422,4.85351 l -0.002,0.0156 -0.002,0.0156 c -0.165468,2.27327 -0.316681,4.4883 -1.837891,6.19336 -1.296451,1.3274 -3.080144,1.64088 -5.34375,1.87305 -3.550365,0.15147 -7.215272,0.12797 -10.6875,-0.69141 h -0.0059 l -0.0078,-0.002 c -2.561448,-0.52264 -4.644844,-2.60776 -5.013672,-5.16016 -0.423076,-4.26001 1.531215,-8.31384 2.539063,-12.58594 l 0.0029,-0.0206 c 0.677608,-2.60049 1.038086,-5.4421 -0.305658,-8.12406 -0.0062,-0.0163 -0.01693,-0.0299 -0.02539,-0.0449 C 11.233301,251.17349 5.9975819,238.95013 4.203125,226.23633 2.2100368,210.88398 2.869659,195.03084 6.9726562,180.09375 l 0.00243,-0.0287 c 2.4463046,-8.71194 5.8120248,-17.39382 11.5678808,-24.41853 0.0026,-0.003 0.01243,-0.0122 0.01503,-0.0152 5.976242,-7.67221 15.936983,-12.98901 25.984953,-13.17441 z"
       id="path847-5-4-1-7-6"
       sodipodi:nodetypes="cccccccccccccccccccccccccccccccsccccccccccccccsscccscccccccccccccccccccccccccccccccccccccccccccsccccccccccccscsscccccccccsccccccscccccccccccccccccccccc" />
  </g>
</svg>
