<?xml version="1.0" encoding="UTF-8" standalone="no"?>
<svg
   xmlns:dc="http://purl.org/dc/elements/1.1/"
   xmlns:cc="http://creativecommons.org/ns#"
   xmlns:rdf="http://www.w3.org/1999/02/22-rdf-syntax-ns#"
   xmlns:svg="http://www.w3.org/2000/svg"
   xmlns="http://www.w3.org/2000/svg"
   xmlns:sodipodi="http://sodipodi.sourceforge.net/DTD/sodipodi-0.dtd"
   xmlns:inkscape="http://www.inkscape.org/namespaces/inkscape"
   inkscape:version="1.0.2-2 (e86c870879, 2021-01-15)"
   sodipodi:docname="dino_combo2.svg"
   id="svg8"
   version="1.1"
   viewBox="0 0 210 297"
   height="297mm"
   width="210mm">
  <defs
     id="defs2" />
  <sodipodi:namedview
     id="base"
     pagecolor="#ffffff"
     bordercolor="#666666"
     borderopacity="1.0"
     inkscape:pageopacity="0.0"
     inkscape:pageshadow="2"
     inkscape:zoom="2.7244408"
     inkscape:cx="149.45757"
     inkscape:cy="937.66348"
     inkscape:document-units="mm"
     inkscape:current-layer="layer1"
     inkscape:document-rotation="0"
     showgrid="false"
     inkscape:window-width="2560"
     inkscape:window-height="1361"
     inkscape:window-x="-9"
     inkscape:window-y="168"
     inkscape:window-maximized="1"
     inkscape:snap-page="true"
     inkscape:object-nodes="false"
     inkscape:snap-object-midpoints="false"
     inkscape:snap-center="true"
     inkscape:snap-smooth-nodes="false"
     inkscape:snap-midpoints="true"
     inkscape:snap-bbox="false"
     inkscape:snap-intersection-paths="false" />
  <metadata
     id="metadata5">
    <rdf:RDF>
      <cc:Work
         rdf:about="">
        <dc:format>image/svg+xml</dc:format>
        <dc:type
           rdf:resource="http://purl.org/dc/dcmitype/StillImage" />
        <dc:title></dc:title>
      </cc:Work>
    </rdf:RDF>
  </metadata>
  <g
     inkscape:label="Lager 1"
     inkscape:groupmode="layer"
     id="layer1">
    <path
       style="fill:none;stroke:#fce07a;stroke-width:4.6;stroke-linecap:butt;stroke-linejoin:miter;stroke-miterlimit:4;stroke-dasharray:none;stroke-opacity:1;paint-order:stroke markers fill"
       d="m 67.214003,201.73911 c -17.572023,-1.4269 -19.111967,-1.17435 -21.914863,-1.99282 -8.139122,-2.37675 -10.554751,-9.15835 -11.402308,-13.4969 -0.958098,-4.90438 -0.0381,-10.41682 1.581986,-13.93925 1.369631,-2.97773 5.632036,-6.75944 12.280768,-4.51068 9.02764,3.05334 13.992254,-4.26171 15.046636,-8.29372 1.668041,-6.37849 -1.388811,-13.17142 -6.712158,-16.21594 -4.370202,-2.49941 -7.434374,-3.03668 -13.236551,-2.84085 -8.009993,0.69043 -15.693652,3.8635 -21.520565,9.35678 -3.662654,3.51586 -10.105313,9.16964 -15.7193755,27.50891 -5.61406297,18.33927 -4.584597,35.84681 -4.312673,41.23391 0.174939,3.46544 1.052475,10.63577 2.264009,15.1535 1.365007,5.08999 2.265012,7.84458 3.55459,11.26519 2.9864795,7.9216 7.8998405,15.61111 8.6853745,16.84561 0.785533,1.2345 2.479948,2.78904 0.373301,9.50793 -2.427869,7.74335 -2.900602,10.61991 -1.590651,13.75446 0.700521,1.67622 2.356544,4.44581 7.84687,5.23409 3.798471,0.54536 9.743854,0.52031 12.08304,0.006 0.780773,-0.17178 6.099393,-1.59641 6.456171,-9.6375 0.09926,-2.23723 1.848737,-3.97021 4.002839,-4.40713 4.445089,-0.90158 8.375898,1.74599 15.797739,1.58737 7.421864,-0.15862 11.231855,-1.84517 14.351653,-1.11007 3.905942,0.92035 4.961917,5.45101 5.336177,12.56216 0.374277,7.11116 11.506023,6.29504 11.506023,6.29504 0,0 7.183944,0.26845 9.602465,-3.14629 1.32896,-1.87637 1.50985,-5.14089 1.64423,-6.84138 0.37927,-4.79858 0.74648,-6.78783 2.61846,-7.23411 3.22031,-0.76772 5.21731,2.85657 10.08818,6.03711 4.04274,2.63983 8.8604,4.79459 15.48043,5.92538 5.18292,0.88531 9.42306,0.52475 10.13223,-2.34501 0.54661,-2.21198 -2.99371,-3.5287 -4.42565,-4.19093 -9.96899,-4.4659 -13.62401,-12.57495 -15.10512,-19.4129 -1.48112,-6.83798 -3.42712,-26.93379 -11.78953,-39.86019 -10.964799,-16.9491 -27.868709,-21.3324 -43.003727,-22.79775 z"
       id="path847-5-4-1-7-6-2"
       sodipodi:nodetypes="sssssssccsssszsssssszsscssssssczscs"
       inkscape:export-xdpi="708.18298"
       inkscape:export-ydpi="708.18298"
       inkscape:export-filename="C:\Users\totte\OneDrive\Skrivbord\dino\dino_2.png" />
    <path
       style="fill:none;stroke:#006f88;stroke-width:2.2;stroke-linecap:butt;stroke-linejoin:miter;stroke-miterlimit:4;stroke-dasharray:none;stroke-opacity:1;paint-order:stroke markers fill"
       d="m 67.214002,201.73911 c -17.572024,-1.4269 -19.111968,-1.17435 -21.914864,-1.99282 -8.139122,-2.37675 -10.554751,-9.15835 -11.402308,-13.4969 -0.958098,-4.90438 -0.0381,-10.41682 1.581986,-13.93925 1.369631,-2.97773 5.632036,-6.75944 12.280768,-4.51068 9.027641,3.05334 13.992255,-4.26171 15.046637,-8.29372 1.668041,-6.37849 -1.388811,-13.17142 -6.712158,-16.21594 -4.370203,-2.49941 -7.434375,-3.03668 -13.236552,-2.84085 -8.009993,0.69043 -15.693652,3.8635 -21.520565,9.35678 -3.662654,3.51586 -10.105313,9.16964 -15.7193744,27.50891 -5.61406216,18.33927 -4.584597,35.84681 -4.3126721,41.23391 0.174939,3.46544 1.052475,10.63577 2.2640083,15.1535 1.365007,5.08999 2.2650116,7.84458 3.5545903,11.26519 2.9864779,7.9216 7.8998389,15.61111 8.6853729,16.84561 0.785533,1.2345 2.479948,2.78904 0.373301,9.50793 -2.427869,7.74335 -2.900602,10.61991 -1.590651,13.75446 0.700521,1.67622 2.356544,4.44581 7.84687,5.23409 3.798471,0.54536 9.743854,0.52031 12.08304,0.006 0.780773,-0.17178 6.099393,-1.59641 6.456171,-9.6375 0.09926,-2.23723 1.848737,-3.97021 4.002839,-4.40713 4.445089,-0.90158 8.375898,1.74599 15.79774,1.58737 7.421864,-0.15862 11.231855,-1.84517 14.351652,-1.11007 3.905942,0.92035 4.961917,5.45101 5.336177,12.56216 0.374277,7.11116 11.506023,6.29504 11.506023,6.29504 0,0 7.183944,0.26845 9.602467,-3.14629 1.32896,-1.87637 1.50985,-5.14089 1.64423,-6.84138 0.37927,-4.79858 0.74648,-6.78783 2.61846,-7.23411 3.22031,-0.76772 5.21731,2.85657 10.08818,6.03711 4.04274,2.63983 8.8604,4.79459 15.48043,5.92538 5.18292,0.88531 9.42306,0.52475 10.13223,-2.34501 0.54661,-2.21198 -2.99371,-3.5287 -4.42565,-4.19093 -9.96899,-4.4659 -13.62401,-12.57495 -15.10512,-19.4129 -1.48112,-6.83798 -3.42712,-26.93379 -11.78953,-39.86019 -10.964801,-16.9491 -27.868711,-21.3324 -43.003728,-22.79775 z"
       id="path847-5-4-1-7-6"
       sodipodi:nodetypes="sssssssccsssszsssssszsscssssssczscs"
       inkscape:export-xdpi="708.18298"
       inkscape:export-ydpi="708.18298"
       inkscape:export-filename="C:\Users\totte\OneDrive\Skrivbord\dino\dino_2.png" />
    <path
       id="path847-5-4-1-7-6-9"
       style="fill:none;stroke:#1ce0ec;stroke-width:1.2;stroke-linecap:butt;stroke-linejoin:miter;stroke-miterlimit:4;stroke-dasharray:none;stroke-opacity:1;paint-order:fill markers stroke"
       d="m 43.818359,140.88281 c -9.038567,0.3852 -17.820979,4.45228 -24.029146,11.02294 -5.343793,5.35104 -8.96004,12.15052 -11.573202,19.18219 -5.815519,15.29188 -7.48287639,31.90675 -6.387886,48.1562 0.4948951,7.48459 1.9679524,14.90896 4.4330274,21.99887 2.4201556,7.16017 5.8391216,13.95301 9.9198076,20.30939 0.948334,1.3596 1.559753,2.97213 1.463571,4.64877 -0.273644,4.41561 -2.37653,8.45665 -3.052094,12.80355 -0.389796,2.23689 -0.406922,4.6627 0.802094,6.66716 1.034315,1.89744 2.915024,3.21502 5.001332,3.7077 3.84267,1.089 7.883206,0.82151 11.831249,0.79004 2.340504,-0.0967 4.785246,-0.97249 6.180778,-2.95644 1.631925,-2.03914 2.045877,-4.71694 2.207344,-7.24052 0.395381,-2.32554 2.568968,-3.99701 4.850414,-4.23085 2.945381,-0.41871 5.831856,0.60325 8.713201,1.07023 4.280687,0.89982 8.694036,0.68333 12.993207,0.0384 2.313505,-0.28411 4.632264,-0.73573 6.962618,-0.71759 2.133875,0.14616 4.167563,1.47046 4.977753,3.48022 1.578812,3.1668 1.464476,6.80068 1.879774,10.22255 0.202332,1.5454 1.158828,2.9195 2.53107,3.65646 2.931836,1.80153 6.521952,1.71165 9.838694,1.61697 2.520087,-0.13975 5.24166,-0.56178 7.229835,-2.2321 1.9067,-1.95887 1.946,-4.88254 2.19662,-7.43381 0.18983,-2.12924 0.23602,-4.38769 1.26041,-6.31619 1.04939,-1.51541 3.25938,-1.62534 4.74868,-0.72302 1.94044,1.05217 3.42199,2.74938 5.19159,4.04716 6.19683,4.83077 13.99398,7.50295 21.82025,7.85307 1.71377,-0.008 3.76275,-0.14219 4.91526,-1.59322 0.76659,-0.89859 0.32992,-2.2465 -0.64199,-2.80548 -2.48428,-1.66208 -5.46541,-2.4769 -7.84398,-4.32974 -5.78113,-4.04837 -9.48736,-10.60659 -10.7203,-17.48977 -1.11616,-5.40366 -1.79134,-10.89103 -3.0574,-16.26564 -1.9718,-8.91552 -4.80319,-17.87037 -10.19551,-25.34544 -5.719,-7.88363 -14.033967,-13.77177 -23.296046,-16.72967 -8.517299,-2.89263 -17.547122,-3.64888 -26.463392,-4.23331 -4.385349,-0.33273 -8.806069,-0.44017 -13.132945,-1.27361 -5.1996,-1.35662 -9.509854,-5.55664 -11.057409,-10.6963 -2.011705,-5.87333 -1.5748,-12.53484 1.121862,-18.1162 2.085989,-3.62608 6.661689,-5.50718 10.70931,-4.51288 2.189565,0.4972 4.358231,1.43434 6.642081,1.10776 3.681535,-0.2814 6.846743,-2.84675 8.516022,-6.04157 2.099511,-3.9038 1.951883,-8.78329 -0.134857,-12.66116 -1.652022,-3.21743 -4.570657,-5.69142 -7.934653,-6.97648 -2.963481,-1.25119 -6.227979,-1.59134 -9.417044,-1.45864 z" />
    <rect
       style="fill:#000000;fill-opacity:1;stroke:none;stroke-width:0.750346;stroke-linecap:square;stroke-linejoin:miter;stroke-miterlimit:4;stroke-dasharray:none;stroke-opacity:1;paint-order:markers stroke fill"
       id="rect1017-2-6"
       width="3"
       height="10.120313"
       x="24.06481"
       y="299.74445" />
    <rect
       style="fill:#000000;fill-opacity:1;stroke:none;stroke-width:0.750346;stroke-linecap:square;stroke-linejoin:miter;stroke-miterlimit:4;stroke-dasharray:none;stroke-opacity:1;paint-order:markers stroke fill"
       id="rect1017"
       width="3"
       height="10.120313"
       x="30.06481"
       y="299.74445" />
  </g>
</svg>
