<?xml version="1.0" encoding="UTF-8" standalone="no"?>
<svg
   xmlns:dc="http://purl.org/dc/elements/1.1/"
   xmlns:cc="http://creativecommons.org/ns#"
   xmlns:rdf="http://www.w3.org/1999/02/22-rdf-syntax-ns#"
   xmlns:svg="http://www.w3.org/2000/svg"
   xmlns="http://www.w3.org/2000/svg"
   xmlns:sodipodi="http://sodipodi.sourceforge.net/DTD/sodipodi-0.dtd"
   xmlns:inkscape="http://www.inkscape.org/namespaces/inkscape"
   inkscape:version="1.0.2-2 (e86c870879, 2021-01-15)"
   sodipodi:docname="dino_scaffold.svg"
   id="svg8"
   version="1.1"
   viewBox="0 0 210 297"
   height="297mm"
   width="210mm">
  <defs
     id="defs2" />
  <sodipodi:namedview
     id="base"
     pagecolor="#ffffff"
     bordercolor="#666666"
     borderopacity="1.0"
     inkscape:pageopacity="0.0"
     inkscape:pageshadow="2"
     inkscape:zoom="1"
     inkscape:cx="-119.9523"
     inkscape:cy="591.37717"
     inkscape:document-units="mm"
     inkscape:current-layer="layer1"
     inkscape:document-rotation="0"
     showgrid="false"
     inkscape:window-width="2560"
     inkscape:window-height="1361"
     inkscape:window-x="-9"
     inkscape:window-y="168"
     inkscape:window-maximized="1"
     inkscape:snap-page="true"
     inkscape:object-nodes="false"
     inkscape:snap-object-midpoints="false"
     inkscape:snap-center="true"
     inkscape:snap-smooth-nodes="false"
     inkscape:snap-midpoints="true"
     inkscape:snap-bbox="false"
     inkscape:snap-intersection-paths="false" />
  <metadata
     id="metadata5">
    <rdf:RDF>
      <cc:Work
         rdf:about="">
        <dc:format>image/svg+xml</dc:format>
        <dc:type
           rdf:resource="http://purl.org/dc/dcmitype/StillImage" />
        <dc:title></dc:title>
      </cc:Work>
    </rdf:RDF>
  </metadata>
  <g
     inkscape:label="Lager 1"
     inkscape:groupmode="layer"
     id="layer1">
    <path
       style="color:#000000;font-style:normal;font-variant:normal;font-weight:normal;font-stretch:normal;font-size:medium;line-height:normal;font-family:sans-serif;font-variant-ligatures:normal;font-variant-position:normal;font-variant-caps:normal;font-variant-numeric:normal;font-variant-alternates:normal;font-variant-east-asian:normal;font-feature-settings:normal;font-variation-settings:normal;text-indent:0;text-align:start;text-decoration:none;text-decoration-line:none;text-decoration-style:solid;text-decoration-color:#000000;letter-spacing:normal;word-spacing:normal;text-transform:none;writing-mode:lr-tb;direction:ltr;text-orientation:mixed;dominant-baseline:auto;baseline-shift:baseline;text-anchor:start;white-space:normal;shape-padding:0;shape-margin:0;inline-size:0;clip-rule:nonzero;display:inline;overflow:visible;visibility:visible;opacity:1;isolation:auto;mix-blend-mode:normal;color-interpolation:sRGB;color-interpolation-filters:linearRGB;solid-color:#000000;solid-opacity:1;vector-effect:none;fill:#1ce0ec;fill-opacity:1;fill-rule:nonzero;stroke:none;stroke-linecap:butt;stroke-linejoin:miter;stroke-miterlimit:4;stroke-dasharray:none;stroke-dashoffset:0;stroke-opacity:1;paint-order:fill markers stroke;color-rendering:auto;image-rendering:auto;shape-rendering:auto;text-rendering:auto;enable-background:accumulate;stop-color:#000000;stop-opacity:1"
       d="m 43.093815,141.64906 c -10.481298,0.63841 -20.181409,6.39436 -26.291081,14.82753 -6.123268,8.25365 -9.4647494,18.08182 -11.7695309,27.85156 v 0.006 l -0.00195,0.004 c -3.3293466,14.72074 -3.6504645,30.09556 -1.1816406,44.97266 0.00171,0.006 0.0026,0.012 0.0039,0.018 2.1724499,11.80169 7.1828325,22.90279 13.5703125,32.95118 1.365547,2.39085 0.958299,5.47353 0.177734,8.32031 l -0.002,0.006 -0.002,0.006 c -0.969721,3.71872 -2.750402,7.64157 -2.412109,11.99023 0.244658,3.26314 2.945258,5.65413 5.953125,6.25391 h 0.0059 l 0.0059,0.002 c 4.367266,0.81969 9.534415,0.98463 13.279297,0.21875 2.024954,-0.41413 3.428358,-1.59941 4.214843,-3.02539 0.786486,-1.42597 1.024536,-3.04843 1.142553,-4.81865 0.118018,-1.77022 0.769176,-3.92077 2.404329,-4.91771 0.02523,-0.0129 0.04688,-0.0313 0.07032,-0.0469 2.216881,-1.61821 5.325214,-1.55469 8.154297,-0.9043 l 0.02148,0.004 0.02344,0.004 c 4.129359,0.75296 8.473713,1.79348 12.945312,1.17383 4.183496,-0.29949 8.187846,-1.36815 12.013672,-0.89062 2.748166,0.67912 4.765977,3.38366 5.279297,6.20898 0.0058,0.0296 0.01435,0.0586 0.02152,0.0879 0.385097,1.39154 0.535596,3.07775 0.708985,4.73828 0.173388,1.66054 0.354601,3.29575 0.970703,4.68555 0.672912,1.51796 2.074775,2.29705 3.445312,2.66797 1.370537,0.37092 2.800338,0.41489 3.921875,0.48437 h 0.0078 0.0078 c 3.079567,0.14134 6.970329,0.25628 9.613281,-1.48632 1.281059,-0.84466 1.950259,-1.9638 2.216799,-3.08008 0.26654,-1.11629 0.23264,-2.19873 0.35352,-3.35352 0.2705,-2.58419 0.29021,-6.24512 1.76953,-8.18359 0.7246,-0.94951 1.66606,-1.37081 2.75586,-1.39453 1.08979,-0.0237 2.32455,0.39632 3.42383,1.25586 2.45675,1.92096 5.44697,4.72894 8.88476,6.43164 5.75804,3.22845 12.49777,5.25253 19.19141,4.82812 0.0245,0.002 0.0481,-0.005 0.0722,-0.008 0.31508,-0.0435 0.8815,-0.11885 1.47071,-0.4082 0.2946,-0.14468 0.73554,-0.34749 0.88476,-1.00586 0.0746,-0.32919 -0.0156,-0.70376 -0.16406,-0.94922 -0.14841,-0.24547 -0.32842,-0.40265 -0.52148,-0.54102 -0.23193,-0.16622 -0.30719,-0.22732 -0.35938,-0.26953 -0.0522,-0.0422 -0.19583,-0.14663 -0.29492,-0.19922 -0.19818,-0.10517 -0.46548,-0.2273 -1.76758,-0.93164 -2.59491,-1.40367 -8.62843,-4.90504 -11.1875,-8.6875 -0.008,-0.013 -0.0183,-0.0247 -0.0274,-0.0371 -3.6082,-4.82908 -5.33064,-10.86052 -6.13086,-16.90429 2.3e-4,-0.0153 -0.004,-0.0299 -0.006,-0.0449 -1.83802,-10.28604 -3.73058,-20.85963 -8.5293,-30.44531 v -0.002 c -4.82496,-9.58584 -13.150734,-17.34872 -23.130862,-21.33985 -9.124379,-3.79665 -18.9811,-4.81339 -28.58789,-5.42968 -5.095348,-0.38778 -10.166789,-0.63342 -15.074219,-1.59961 -5.982221,-1.70559 -10.575202,-7.26741 -11.648438,-13.37696 -0.0026,-0.0143 -0.0052,-0.0287 -0.0078,-0.043 -1.289568,-5.83295 -0.547097,-12.24675 2.603516,-17.30274 2.586838,-3.57255 7.647461,-4.82073 10.549187,-3.8735 2.901726,0.94722 4.874515,1.40882 6.816051,1.11355 3.967761,-0.43977 7.053404,-3.51071 8.442256,-7.25968 1.388852,-3.74898 0.780126,-8.35741 -1.762522,-11.78724 -2.896289,-4.10258 -7.796352,-6.31558 -12.654297,-6.53711 -0.382952,-0.0698 -2.469827,-0.12472 -3.882557,-0.0274 z m 14.745219,7.41274 c 2.305961,3.1981 2.827085,7.14746 1.67035,10.26753 -1.156735,3.12007 -4.005368,5.652 -6.253397,5.92835 -2.248029,0.27635 -3.511825,-0.14659 -5.074417,-0.6844 -0.0068,-0.003 -0.01435,-0.004 -0.02152,-0.006 -4.995312,-1.59711 -11.038387,-0.10778 -14.21289,4.30078 -0.01531,0.0152 -0.02344,0.0351 -0.03516,0.0527 -3.491791,5.57517 -4.271376,12.50581 -2.886718,18.80274 1.209889,6.86064 6.269272,13.0244 13.095703,14.95507 0.02516,0.0101 0.05208,0.0131 0.07812,0.0197 5.120846,1.01359 10.295132,1.252 17.616206,1.75274 7.321075,0.50074 16.94959,1.51875 26.095474,5.24578 9.090174,3.74561 17.002425,11.2073 21.733745,20.31612 4.62804,9.24551 6.51008,19.61488 8.34766,29.89844 0.82748,6.2158 2.60727,12.56265 6.48633,17.76757 3.03195,4.47092 9.2382,7.883 11.88086,9.3125 0.76728,0.41505 1.1947,0.21875 1.0371,0.54688 -6.06977,0.27303 -12.29308,-1.57168 -17.64843,-4.58008 -0.0156,-0.008 -0.0312,-0.0156 -0.0468,-0.0234 -3.0621,-1.51282 -5.97681,-4.2085 -8.55273,-6.22265 -1.41904,-1.10957 -3.07505,-1.71505 -4.69922,-1.67969 -1.62417,0.0354 -3.21921,0.7579 -4.30274,2.17773 -2.13692,2.80021 -1.92554,6.87547 -2.167968,9.19141 -0.135583,1.29528 -0.129516,2.33753 -0.310547,3.0957 -0.181031,0.75817 -0.446665,1.26421 -1.373047,1.875 -1.771928,1.1683 -5.419051,1.29593 -8.419922,1.15821 -1.155545,-0.0714 -2.454396,-0.1334 -3.505859,-0.41797 -1.056153,-0.28584 -1.771431,-0.71405 -2.140625,-1.54688 -0.426006,-0.96098 -0.639988,-2.44858 -0.810547,-4.08203 -0.16885,-1.61707 -0.315191,-3.37719 -0.761719,-5.01562 -0.649648,-3.50307 -3.100688,-6.89477 -6.816406,-7.7793 -0.0335,-0.0118 -0.06901,-0.0118 -0.10351,-0.0177 -4.378708,-0.56526 -8.557814,0.60613 -12.5,0.88477 -0.02328,-0.002 -0.04558,0.005 -0.06836,0.008 -3.998411,0.56314 -8.302494,-0.29122 -11.93183,-1.02542 -3.629337,-0.73419 -7.185554,-1.01727 -10.113091,1.09402 -2.454851,1.51785 -3.183747,4.38637 -3.316913,6.26082 -0.133166,1.87446 -0.362146,3.19449 -0.913597,4.19433 -0.551451,0.99983 -1.35528,1.72284 -2.863281,2.03125 -3.318533,0.67868 -8.376516,0.54809 -12.5,-0.22461 -8.83e-4,-1.8e-4 -0.0011,-0.002 -0.002,-0.002 -2.228029,-0.44538 -4.182301,-2.22485 -4.347656,-4.43945 v -0.002 -0.002 c -0.28705,-3.68994 1.321895,-7.38236 2.349609,-11.31836 0.827458,-3.01781 1.435562,-6.68626 -0.369141,-9.84375 -0.008,-0.014 -0.01693,-0.0273 -0.02539,-0.041 C 12.839673,251.34917 7.9367037,240.462 5.8203125,228.96484 3.3962111,214.34371 3.714486,199.23578 6.9804688,184.78906 v -0.002 c 5.905e-4,-0.003 0.00136,-0.005 0.00195,-0.008 2.274998,-9.64061 5.5521842,-19.19794 11.3980572,-27.1695 5.845874,-7.97157 15.252497,-13.44497 24.032304,-13.59428 8.880732,-0.95201 12.387221,1.73275 15.426254,5.04652 z"
       id="path847-5-4-1-7-6-9"
       sodipodi:nodetypes="cccccccccccccccssccccccccccssscccsssssscccsssssssccccccccccccccccccccccccccccccccscccccsssscsssccccccccccscccccccccccccccc" />
  </g>
</svg>
