<?xml version="1.0" encoding="UTF-8" standalone="no"?>
<svg
   inkscape:version="1.1 (c68e22c387, 2021-05-23)"
   sodipodi:docname="dino_3.1.svg"
   id="svg8"
   version="1.1"
   viewBox="0 0 171.97917 171.97917"
   height="650"
   width="650"
   inkscape:export-filename="C:\Users\totte\Desktop\Deskito\media\images\ico\dinos\dino.png"
   inkscape:export-xdpi="73.846153"
   inkscape:export-ydpi="73.846153"
   xmlns:inkscape="http://www.inkscape.org/namespaces/inkscape"
   xmlns:sodipodi="http://sodipodi.sourceforge.net/DTD/sodipodi-0.dtd"
   xmlns="http://www.w3.org/2000/svg"
   xmlns:svg="http://www.w3.org/2000/svg"
   xmlns:rdf="http://www.w3.org/1999/02/22-rdf-syntax-ns#"
   xmlns:cc="http://creativecommons.org/ns#"
   xmlns:dc="http://purl.org/dc/elements/1.1/">
  <defs
     id="defs2">
    <inkscape:path-effect
       effect="fillet_chamfer"
       id="path-effect55014"
       is_visible="true"
       lpeversion="1"
       satellites_param="F,0,0,1,0,31.75,0,1 @ F,0,0,1,0,31.75,0,1 @ F,0,0,1,0,31.75,0,1 @ F,0,0,1,0,31.75,0,1"
       unit="px"
       method="auto"
       mode="F"
       radius="120"
       chamfer_steps="1"
       flexible="false"
       use_knot_distance="true"
       apply_no_radius="true"
       apply_with_radius="true"
       only_selected="false"
       hide_knots="false" />
  </defs>
  <sodipodi:namedview
     id="base"
     pagecolor="#3b3b3b"
     bordercolor="#666666"
     borderopacity="1.0"
     inkscape:pageopacity="0"
     inkscape:pageshadow="2"
     inkscape:zoom="1"
     inkscape:cx="520.5"
     inkscape:cy="217.5"
     inkscape:document-units="mm"
     inkscape:current-layer="layer1"
     inkscape:document-rotation="0"
     showgrid="false"
     inkscape:window-width="2560"
     inkscape:window-height="1361"
     inkscape:window-x="-9"
     inkscape:window-y="126"
     inkscape:window-maximized="1"
     inkscape:snap-page="true"
     inkscape:object-nodes="false"
     inkscape:pagecheckerboard="0"
     units="px" />
  <metadata
     id="metadata5">
    <rdf:RDF>
      <cc:Work
         rdf:about="">
        <dc:format>image/svg+xml</dc:format>
        <dc:type
           rdf:resource="http://purl.org/dc/dcmitype/StillImage" />
      </cc:Work>
    </rdf:RDF>
  </metadata>
  <g
     inkscape:label="Lager 1"
     inkscape:groupmode="layer"
     id="layer1">
    <path
       style="fill:#000000;fill-opacity:0;stroke:#7df71f;stroke-width:10;stroke-linecap:butt;stroke-linejoin:miter;stroke-miterlimit:4;stroke-dasharray:none;stroke-opacity:1"
       d="M 67.718387,72.82771 C 59.041859,74.376578 54.102698,72.550818 51.588821,70.164097 43.640724,62.618026 46.879036,49.257342 59.99418,50.349126 79.128098,51.94195 78.602744,25.945649 60.703847,24.24117 41.32653,22.395903 31.384592,34.77112 26.152334,48.103681 20.892866,61.505578 19.96275,75.042384 20.315056,84.361234 c 0.642836,17.003656 6.184212,28.303586 12.115796,38.100926 5.642174,8.57063 -5.038113,15.14595 -2.09719,22.75457 0.66536,1.59212 2.23825,4.22268 7.453,4.97138 3.6078,0.51799 9.25476,0.4942 11.47653,0.006 0.74158,-0.16315 5.79324,-1.51626 6.13211,-9.15373 0.0943,-2.12494 1.75594,-3.77094 3.80192,-4.18593 4.22197,-0.85633 8.890914,2.5938 15.940224,2.44314 7.04932,-0.15066 8.777753,-1.34816 11.779187,-1.85751 2.254682,-0.38262 4.525774,0.50019 4.881244,7.2544 0.35549,6.7542 10.928483,5.97907 10.928483,5.97907 0,0 6.82335,0.25497 9.12047,-2.98838 1.26225,-1.78219 1.43406,-4.88284 1.56171,-6.49798 0.36023,-4.5577 0.709,-6.44711 2.48703,-6.87099 3.05866,-0.72919 6.8075,2.5809 11.43387,5.6018 9.01059,5.66407 23.91405,1.53484 18.53604,-0.38148 C 134.80907,136.57396 133.9198,128.3213 133.10606,120.89959 129.53335,88.314867 98.440731,67.34339 67.718387,72.82771 Z"
       sodipodi:nodetypes="ssssssccsssszsscsssccss"
       inkscape:export-xdpi="92.886169"
       inkscape:export-ydpi="92.886169"
       inkscape:export-filename="C:\Users\totte\Desktop\Deskito\media\images\ico\dinos\dino2.png"
       id="path57297" />
  </g>
</svg>
