<?xml version="1.0" encoding="UTF-8" standalone="no"?>
<svg
   inkscape:version="1.1 (c68e22c387, 2021-05-23)"
   sodipodi:docname="chonky_dino.svg"
   id="svg8"
   version="1.1"
   viewBox="0 0 171.97917 171.97917"
   height="650"
   width="650"
   xmlns:inkscape="http://www.inkscape.org/namespaces/inkscape"
   xmlns:sodipodi="http://sodipodi.sourceforge.net/DTD/sodipodi-0.dtd"
   xmlns="http://www.w3.org/2000/svg"
   xmlns:svg="http://www.w3.org/2000/svg"
   xmlns:rdf="http://www.w3.org/1999/02/22-rdf-syntax-ns#"
   xmlns:cc="http://creativecommons.org/ns#"
   xmlns:dc="http://purl.org/dc/elements/1.1/">
  <defs
     id="defs2" />
  <sodipodi:namedview
     id="base"
     pagecolor="#ffffff"
     bordercolor="#666666"
     borderopacity="1.0"
     inkscape:pageopacity="0.0"
     inkscape:pageshadow="2"
     inkscape:zoom="1"
     inkscape:cx="293.5"
     inkscape:cy="370.5"
     inkscape:document-units="mm"
     inkscape:current-layer="layer1"
     inkscape:document-rotation="0"
     showgrid="false"
     inkscape:window-width="2560"
     inkscape:window-height="1361"
     inkscape:window-x="-9"
     inkscape:window-y="126"
     inkscape:window-maximized="1"
     inkscape:snap-page="false"
     inkscape:object-nodes="false"
     inkscape:pagecheckerboard="0"
     units="px" />
  <metadata
     id="metadata5">
    <rdf:RDF>
      <cc:Work
         rdf:about="">
        <dc:format>image/svg+xml</dc:format>
        <dc:type
           rdf:resource="http://purl.org/dc/dcmitype/StillImage" />
      </cc:Work>
    </rdf:RDF>
  </metadata>
  <g
     inkscape:label="Lager 1"
     inkscape:groupmode="layer"
     id="layer1">
    <path
       style="fill:none;stroke:#000000;stroke-width:10;stroke-linecap:butt;stroke-linejoin:miter;stroke-miterlimit:4;stroke-dasharray:none;stroke-opacity:1"
       d="m 122.94655,92.167659 c -8.70589,-12.21247 -23.705534,-20.26165 -40.845177,-21.65344 -16.69,-1.35528 -18.15265,-1.1154 -20.81485,-1.8928 -7.73059,-2.25744 -10.02496,-8.69865 -10.82998,-12.81943 -0.91,-4.6582 -0.0362,-9.89395 1.50258,-13.23957 1.30088,-2.82828 5.34934,-6.42014 11.66434,-4.28427 8.5745,2.90008 13.28992,-4.04777 14.29138,-7.8774 1.58431,-6.05835 -1.3191,-12.5103 -6.37524,-15.402 -4.15085,-2.37395 -7.06121,-2.88425 -12.57215,-2.69825 -7.60794,0.65576 -14.90592,3.66956 -20.44035,8.88712 -3.47881,3.33937 -9.59808,8.70937 -14.93035,26.12811 -5.33226,17.41874 -4.35447,34.0475 -4.0962,39.16418 0.16616,3.2915 0.99965,10.10193 2.15037,14.392871 1.29649,4.83452 2.15132,7.45084 3.37617,10.69975 2.83657,7.52397 7.50331,14.82752 8.24941,16.00005 0.74611,1.17254 2.35547,2.64905 0.35457,9.03067 -2.30601,7.35469 -2.75501,10.08686 -1.51081,13.06405 0.66536,1.59212 2.23825,4.22268 7.453,4.97138 3.6078,0.51799 9.25476,0.4942 11.47653,0.006 0.74158,-0.16315 5.79324,-1.51626 6.13211,-9.15373 0.0943,-2.12494 1.75594,-3.77094 3.80192,-4.18593 4.22197,-0.85633 7.95547,1.65836 15.00478,1.5077 7.04932,-0.15066 10.66807,-1.75256 13.63127,-1.05436 3.70989,0.87415 4.712863,5.17741 5.068333,11.93162 0.35549,6.7542 10.928484,5.97907 10.928484,5.97907 0,0 6.82335,0.25497 9.12047,-2.98838 1.26225,-1.78219 1.43406,-4.88284 1.56171,-6.49798 0.36023,-4.5577 0.709,-6.44711 2.48703,-6.87099 3.05866,-0.72919 4.95542,2.71319 9.58179,5.73409 3.83982,2.5073 8.41566,4.55392 14.70341,5.62796 4.92276,0.84086 8.95007,0.49841 9.62365,-2.22731 0.51918,-2.10095 -2.84345,-3.35158 -4.20352,-3.98057 -9.4686,-4.24175 -12.94016,-11.94375 -14.34692,-18.43849 -1.40677,-6.49474 -3.26034,-28.24136 -11.19776,-37.859721 z"
       id="path847-5-4-1"
       sodipodi:nodetypes="csssssssccsssszsssssszsscssssssczc"
       inkscape:export-xdpi="708.18298"
       inkscape:export-ydpi="708.18298"
       inkscape:export-filename="C:\Users\totte\OneDrive\Skrivbord\dino\dino_2.png" />
  </g>
</svg>
