<?xml version="1.0" encoding="UTF-8" standalone="no"?>
<svg
   xmlns:dc="http://purl.org/dc/elements/1.1/"
   xmlns:cc="http://creativecommons.org/ns#"
   xmlns:rdf="http://www.w3.org/1999/02/22-rdf-syntax-ns#"
   xmlns:svg="http://www.w3.org/2000/svg"
   xmlns="http://www.w3.org/2000/svg"
   xmlns:sodipodi="http://sodipodi.sourceforge.net/DTD/sodipodi-0.dtd"
   xmlns:inkscape="http://www.inkscape.org/namespaces/inkscape"
   width="210mm"
   height="297mm"
   viewBox="0 0 210 297"
   version="1.1"
   id="svg8"
   sodipodi:docname="dino_solid.svg"
   inkscape:version="1.0.2-2 (e86c870879, 2021-01-15)">
  <defs
     id="defs2" />
  <sodipodi:namedview
     id="base"
     pagecolor="#ffffff"
     bordercolor="#666666"
     borderopacity="1.0"
     inkscape:pageopacity="0.0"
     inkscape:pageshadow="2"
     inkscape:zoom="0.70710678"
     inkscape:cx="-21.677587"
     inkscape:cy="774.63709"
     inkscape:document-units="mm"
     inkscape:current-layer="layer1"
     inkscape:document-rotation="0"
     showgrid="false"
     inkscape:window-width="2560"
     inkscape:window-height="1361"
     inkscape:window-x="-9"
     inkscape:window-y="-9"
     inkscape:window-maximized="1"
     inkscape:snap-page="true" />
  <metadata
     id="metadata5">
    <rdf:RDF>
      <cc:Work
         rdf:about="">
        <dc:format>image/svg+xml</dc:format>
        <dc:type
           rdf:resource="http://purl.org/dc/dcmitype/StillImage" />
        <dc:title></dc:title>
      </cc:Work>
    </rdf:RDF>
  </metadata>
  <g
     inkscape:label="Lager 1"
     inkscape:groupmode="layer"
     id="layer1">
    <path
       style="color:#000000;font-style:normal;font-variant:normal;font-weight:normal;font-stretch:normal;font-size:medium;line-height:normal;font-family:sans-serif;font-variant-ligatures:normal;font-variant-position:normal;font-variant-caps:normal;font-variant-numeric:normal;font-variant-alternates:normal;font-variant-east-asian:normal;font-feature-settings:normal;font-variation-settings:normal;text-indent:0;text-align:start;text-decoration:none;text-decoration-line:none;text-decoration-style:solid;text-decoration-color:#000000;letter-spacing:normal;word-spacing:normal;text-transform:none;writing-mode:lr-tb;direction:ltr;text-orientation:mixed;dominant-baseline:auto;baseline-shift:baseline;text-anchor:start;white-space:normal;shape-padding:0;shape-margin:0;inline-size:0;clip-rule:nonzero;display:inline;overflow:visible;visibility:visible;opacity:1;isolation:auto;mix-blend-mode:normal;color-interpolation:sRGB;color-interpolation-filters:linearRGB;solid-color:#000000;solid-opacity:1;vector-effect:none;fill:#000000;fill-opacity:1;fill-rule:nonzero;stroke:none;stroke-linecap:butt;stroke-linejoin:miter;stroke-miterlimit:4;stroke-dasharray:none;stroke-dashoffset:0;stroke-opacity:1;color-rendering:auto;image-rendering:auto;shape-rendering:auto;text-rendering:auto;enable-background:accumulate;stop-color:#000000;stop-opacity:1"
       d="m 44.997634,128.10742 c -3.469547,0.1171 -8.327349,1.26933 -11.732422,2.69531 -4.55252,1.90653 -8.79324,4.92843 -11.240234,7.27735 -3.630656,3.48512 -10.615156,9.78514 -16.3710938,28.58789 -5.81309799,18.98946 -5.85145499,44.96347 -5.56054699,50.72656 0.18606,3.68576 1.05395199,10.87317 2.34765599,15.69726 1.388131,5.17624 2.328452,8.05666 3.646485,11.55274 3.11461,8.26147 8.1599218,16.1251 8.9453118,17.35937 0.533637,0.83864 0.839355,1.08419 1.021485,2.0586 0.182129,0.9744 0.154727,2.75308 -0.853516,5.96875 -1.235429,3.94023 -2.001569,6.69048 -2.291016,9.02344 -0.289446,2.33295 -0.02738,4.3101 0.744141,6.15625 0.829995,1.98607 3.288553,5.54717 9.394531,6.42382 4.117625,0.59119 9.869779,0.64282 12.873047,-0.0176 v -0.002 c 0.584805,-0.12865 2.47908,-0.63462 4.306641,-2.35156 1.827561,-1.71694 3.493108,-4.66551 3.691406,-9.13477 0.05874,-1.32388 1.115531,-2.40151 2.535156,-2.68945 1.786781,-0.36241 3.595778,-0.0177 6.080078,0.51563 2.484301,0.53328 5.56256,1.21002 9.541016,1.125 7.766563,-0.16599 11.829455,-1.68838 14.021484,-1.17188 1.337974,0.31526 2.02421,1.02117 2.699219,2.82617 0.675009,1.805 1.055031,4.60802 1.240235,8.12696 0.120337,2.28638 1.209218,4.15578 2.642578,5.36328 1.433359,1.2075 3.13855,1.85116 4.746094,2.24023 3.056462,0.73975 5.782582,0.55518 6.060542,0.53516 0.01788,7e-4 1.97947,0.078 4.30274,-0.32031 2.333829,-0.40012 5.239619,-1.18775 6.982419,-3.64844 1.89077,-2.66961 1.86873,-6.18867 2,-7.84961 0.18936,-2.39583 0.40503,-4.0448 0.67188,-4.86914 0.26684,-0.82434 0.17467,-0.66844 0.5332,-0.75391 0.89068,-0.21234 1.46191,0.0777 2.85742,1.19336 1.39552,1.11564 3.23023,2.92784 5.86523,4.64844 4.26337,2.78386 9.41829,5.08037 16.34571,6.26367 2.87783,0.49157 5.68055,0.37 8.02734,-0.34375 2.34679,-0.71375 4.46775,-2.11521 5.05274,-4.48242 0.26197,-1.06014 -0.007,-2.18022 -0.49219,-2.95899 -0.48565,-0.77876 -1.11929,-1.30807 -1.75,-1.74414 -1.26142,-0.87214 -2.64565,-1.40559 -3.26367,-1.6914 l -0.0117,-0.004 -0.01,-0.004 c -4.90576,-2.1977 -7.9452,-4.21528 -10.09765,-6.75977 -2.14865,-2.54 -3.5194,-5.73476 -4.80274,-10.53711 -1.84106,-7.93417 -2.07398,-14.06014 -3.24023,-20.33984 -1.16825,-6.29048 -3.34336,-12.66273 -8.96094,-20.54297 -9.62303,-13.49903 -26.089238,-22.28656 -44.808593,-23.80664 -9.127856,-0.74121 -15.783561,0.61034 -21.314453,1.6582 -5.530892,1.04786 -9.802659,1.76649 -14.876953,0.1875 -0.955468,-0.29732 -1.627763,-1.07488 -2.169922,-2.70703 -0.542159,-1.63215 -0.781221,-3.9603 -0.755859,-6.48828 0.05072,-5.05597 1.09129,-10.89687 1.796875,-14.36524 1.418149,-6.97103 2.970143,-12.90835 4.671875,-17.24414 l 0.0039,-0.0137 0.0059,-0.0137 c 0,0 0.551051,-1.39172 1.716797,-2.4668 1.165746,-1.07508 2.571532,-1.897 5.503907,-0.73242 4.591397,1.82346 8.836433,2.79341 12.798828,1.88867 3.962395,-0.90474 7.332127,-3.77961 9.894531,-8.67969 3.276838,-6.26627 0.233628,-14.32114 -6.59375,-18.24804 -4.639441,-2.66847 -8.375396,-3.31954 -14.371094,-3.11719 z m 0.126953,3.76172 c 5.723542,-0.19317 8.192048,0.21773 12.367188,2.61914 5.331338,3.06642 7.331443,9.03955 5.134765,13.24023 -2.236636,4.27711 -4.606797,6.11693 -7.396484,6.75391 -2.789687,0.63698 -6.30954,-0.0246 -10.570313,-1.7168 -4.097755,-1.62741 -7.531258,-0.3041 -9.447265,1.46289 -1.91136,1.76271 -2.6818,3.89783 -2.685547,3.90821 -9e-6,2e-5 -0.0039,0.006 -0.0039,0.006 -1.838135,4.69047 -3.40689,10.76723 -4.845703,17.83984 -0.724135,3.55955 -1.817531,9.54634 -1.873047,15.08008 -0.02776,2.76687 0.186679,5.42317 0.947265,7.71289 0.760587,2.28972 2.238529,4.37067 4.625,5.11328 5.971796,1.85828 11.127401,0.97321 16.697266,-0.082 5.569865,-1.05524 11.690472,-2.30529 20.308594,-1.60547 17.728785,1.43964 33.158424,9.76894 42.048824,22.24023 5.33515,7.48406 7.22246,13.11249 8.32422,19.04493 1.08796,5.8582 1.36773,12.1174 3.23242,20.26367 v 0.0996 l 0.0625,0.23828 c 1.35085,5.0622 2.92363,8.88618 5.57422,12.01953 2.65058,3.13335 6.27168,5.45123 11.43359,7.76367 0.82636,0.38143 1.9392,0.84471 2.68359,1.35938 0.3749,0.2592 0.62064,0.52088 0.69532,0.64062 0.0747,0.11974 0.0472,0.006 0.0332,0.0625 -0.13121,0.53097 -0.86061,1.28834 -2.49414,1.78516 -1.63353,0.49682 -3.94049,0.63687 -6.29688,0.23437 -6.44376,-1.10068 -11.0197,-3.15706 -14.92187,-5.70507 -2.28407,-1.49145 -3.91658,-3.11388 -5.57227,-4.4375 -1.65568,-1.32363 -3.72053,-2.47706 -6.08203,-1.91407 -1.532,0.36523 -2.75522,1.75153 -3.24219,3.25586 -0.48696,1.50433 -0.64813,3.28219 -0.84179,5.73242 -0.14019,1.77372 -0.52686,4.84846 -1.32032,5.96875 -0.69966,0.98787 -2.642553,1.78876 -4.546863,2.11524 -1.90431,0.32647 -3.54492,0.26953 -3.54492,0.26953 l -0.10352,-0.004 -0.10351,0.008 c 0,0 -2.58751,0.16766 -5.08789,-0.4375 -1.250194,-0.30258 -2.426223,-0.80121 -3.207035,-1.45899 -0.780812,-0.65778 -1.239941,-1.37725 -1.308594,-2.68164 -0.192766,-3.66261 -0.533807,-6.73753 -1.472656,-9.24805 -0.938849,-2.51051 -2.756635,-4.55767 -5.363281,-5.17187 -4.109331,-0.96826 -7.742704,0.91592 -14.966797,1.07031 -3.516874,0.0752 -6.171305,-0.50508 -8.667969,-1.04101 -2.496664,-0.53594 -4.916832,-1.07154 -7.61914,-0.52344 -2.931235,0.59454 -5.407084,3.01606 -5.548829,6.21094 -0.162012,3.65144 -1.362531,5.48263 -2.507812,6.55859 -1.145281,1.07596 -2.333414,1.37511 -2.537109,1.41992 -1.721433,0.37853 -7.974782,0.47909 -11.529297,-0.0312 -4.983402,-0.71548 -5.870153,-2.74879 -6.455079,-4.14844 -0.551395,-1.3194 -0.713928,-2.37623 -0.482421,-4.24218 0.231506,-1.86596 0.930003,-4.47958 2.146484,-8.35938 1.119257,-3.56973 1.300856,-5.96852 0.960937,-7.78711 -0.339918,-1.81859 -1.285248,-2.98058 -1.544921,-3.38867 -0.80123,-1.25917 -5.680187,-8.92746 -8.5976571,-16.66602 -1.2866467,-3.41283 -2.1642927,-6.09465 -3.5332027,-11.19921 -1.153356,-4.30075 -2.057329,-11.59835 -2.224609,-14.91211 -0.258332,-5.11774 -0.125791,-31.38335 5.40039,-49.43555 5.5833428,-18.23893 11.6117228,-23.35843 15.3789068,-26.97461 2.012965,-1.93228 6.098998,-4.84986 10.085937,-6.51953 2.835407,-1.18742 7.732997,-2.31603 10.40625,-2.40625 z"
       id="path847-5" />
  </g>
</svg>
