<?xml version="1.0" encoding="UTF-8" standalone="no"?>
<svg
   xmlns:dc="http://purl.org/dc/elements/1.1/"
   xmlns:cc="http://creativecommons.org/ns#"
   xmlns:rdf="http://www.w3.org/1999/02/22-rdf-syntax-ns#"
   xmlns:svg="http://www.w3.org/2000/svg"
   xmlns="http://www.w3.org/2000/svg"
   xmlns:xlink="http://www.w3.org/1999/xlink"
   xmlns:sodipodi="http://sodipodi.sourceforge.net/DTD/sodipodi-0.dtd"
   xmlns:inkscape="http://www.inkscape.org/namespaces/inkscape"
   inkscape:version="1.0.2-2 (e86c870879, 2021-01-15)"
   sodipodi:docname="dino_silutte.svg"
   id="svg8"
   version="1.1"
   viewBox="0 0 210 297"
   height="297mm"
   width="210mm">
  <defs
     id="defs2" />
  <sodipodi:namedview
     id="base"
     pagecolor="#ffffff"
     bordercolor="#666666"
     borderopacity="1.0"
     inkscape:pageopacity="0.0"
     inkscape:pageshadow="2"
     inkscape:zoom="1"
     inkscape:cx="73.64194"
     inkscape:cy="721.50682"
     inkscape:document-units="mm"
     inkscape:current-layer="layer1"
     inkscape:document-rotation="0"
     showgrid="false"
     inkscape:window-width="2560"
     inkscape:window-height="1361"
     inkscape:window-x="-9"
     inkscape:window-y="-9"
     inkscape:window-maximized="1"
     inkscape:snap-page="true" />
  <metadata
     id="metadata5">
    <rdf:RDF>
      <cc:Work
         rdf:about="">
        <dc:format>image/svg+xml</dc:format>
        <dc:type
           rdf:resource="http://purl.org/dc/dcmitype/StillImage" />
        <dc:title></dc:title>
      </cc:Work>
    </rdf:RDF>
  </metadata>
  <g
     inkscape:label="Lager 1"
     inkscape:groupmode="layer"
     id="layer1">
    <path
       style="fill:none;stroke:#000000;stroke-width:3.54096;stroke-linecap:butt;stroke-linejoin:miter;stroke-miterlimit:4;stroke-dasharray:none;stroke-opacity:1"
       d="m 137.2671,252.39071 c -3.55485,-15.28582 -0.89678,-23.40905 -11.19776,-37.85909 -8.70589,-12.21247 -23.70553,-20.26165 -40.845168,-21.65345 -16.689993,-1.35528 -24.031002,4.89462 -34.419788,1.66189 -6.286151,-1.9561 -3.615561,-17.59231 -2.270917,-24.20202 1.344643,-6.60971 2.813413,-12.26476 4.47995,-16.51087 0,0 2.490843,-6.65884 9.102641,-4.03299 8.325416,3.30641 14.606564,3.06879 19.120034,-5.56229 2.573905,-4.92206 0.202251,-11.5181 -5.515351,-14.80668 -4.145031,-2.3841 -7.061212,-2.88425 -12.572152,-2.69825 -2.888634,0.0975 -7.477052,1.17033 -10.41162,2.39927 -4.015657,1.6817 -7.931453,4.47462 -10.028736,6.48784 -3.478814,3.33937 -9.598084,8.70937 -14.930348,26.12811 -5.332265,17.41874 -5.412808,41.98501 -5.15453,47.10169 0.166157,3.2915 0.999642,10.10193 2.150365,14.39286 1.29649,4.83452 2.151325,7.45084 3.376168,10.69974 2.836569,7.52397 7.503311,14.82752 8.249415,16.00005 0.746103,1.17254 2.355468,2.64905 0.354566,9.03067 -2.306008,7.35469 -2.755009,10.08686 -1.51081,13.06405 0.665362,1.59212 2.238254,4.22268 7.453004,4.97138 3.607802,0.51799 9.254765,0.4942 11.476542,0.006 0.74158,-0.16315 5.793238,-1.51626 6.132108,-9.15373 0.09428,-2.12494 1.75594,-3.77094 3.80192,-4.18593 4.221964,-0.85633 7.955463,1.65836 15.004779,1.5077 7.049313,-0.15066 10.668063,-1.75256 13.631259,-1.05436 3.709893,0.87415 4.712855,5.17741 5.068334,11.93162 0.355488,6.7542 10.928475,5.97907 10.928475,5.97907 0,0 6.82335,0.25497 9.12047,-2.98838 1.26225,-1.78219 1.43406,-4.88284 1.56171,-6.49798 0.36023,-4.5577 0.709,-6.44711 2.48703,-6.87099 3.05866,-0.72919 4.95542,2.71319 9.58179,5.73409 3.83982,2.5073 8.41567,4.55392 14.70343,5.62796 4.92275,0.84086 9.61152,-0.49378 10.2851,-3.2195 0.51918,-2.10095 -2.84345,-3.35158 -4.20352,-3.98057 -9.4686,-4.24175 -12.52911,-8.15538 -15.00839,-17.4463 z"
       id="path847-5"
       sodipodi:nodetypes="cssssssssssssssszsssssszsscssssssccc"
       inkscape:export-xdpi="69.480507"
       inkscape:export-ydpi="69.480507" />
    <text
       x="0"
       y="0"
       id="text874"
       transform="matrix(-0.37297972,-3.9617587,3.9617587,-0.37297972,-635.81472,269.57637)"><textPath
         style="font-style:normal;font-weight:normal;font-size:3.175px;text-align:center;text-anchor:start;fill:#000000;fill-opacity:1;stroke:none"
         xlink:href="#path847-5"
         startOffset="50%"
         dy="-1.5875"
         id="textPath872">586.4 mm</textPath></text>
  </g>
</svg>
