<?xml version="1.0" encoding="UTF-8" standalone="no"?>
<svg
   xmlns:dc="http://purl.org/dc/elements/1.1/"
   xmlns:cc="http://creativecommons.org/ns#"
   xmlns:rdf="http://www.w3.org/1999/02/22-rdf-syntax-ns#"
   xmlns:svg="http://www.w3.org/2000/svg"
   xmlns="http://www.w3.org/2000/svg"
   xmlns:sodipodi="http://sodipodi.sourceforge.net/DTD/sodipodi-0.dtd"
   xmlns:inkscape="http://www.inkscape.org/namespaces/inkscape"
   width="210mm"
   height="297mm"
   viewBox="0 0 210 297"
   version="1.1"
   id="svg8"
   sodipodi:docname="dino_silutte.svg"
   inkscape:version="1.0.2-2 (e86c870879, 2021-01-15)">
  <defs
     id="defs2" />
  <sodipodi:namedview
     id="base"
     pagecolor="#ffffff"
     bordercolor="#666666"
     borderopacity="1.0"
     inkscape:pageopacity="0.0"
     inkscape:pageshadow="2"
     inkscape:zoom="5.6568543"
     inkscape:cx="20.091013"
     inkscape:cy="1051.1887"
     inkscape:document-units="mm"
     inkscape:current-layer="layer1"
     inkscape:document-rotation="0"
     showgrid="false"
     inkscape:window-width="2560"
     inkscape:window-height="1361"
     inkscape:window-x="-9"
     inkscape:window-y="-9"
     inkscape:window-maximized="1"
     inkscape:snap-page="false"
     inkscape:snap-smooth-nodes="true" />
  <metadata
     id="metadata5">
    <rdf:RDF>
      <cc:Work
         rdf:about="">
        <dc:format>image/svg+xml</dc:format>
        <dc:type
           rdf:resource="http://purl.org/dc/dcmitype/StillImage" />
        <dc:title></dc:title>
      </cc:Work>
    </rdf:RDF>
  </metadata>
  <g
     inkscape:label="Lager 1"
     inkscape:groupmode="layer"
     id="layer1">
    <path
       style="color:#000000;font-style:normal;font-variant:normal;font-weight:normal;font-stretch:normal;font-size:medium;line-height:normal;font-family:sans-serif;font-variant-ligatures:normal;font-variant-position:normal;font-variant-caps:normal;font-variant-numeric:normal;font-variant-alternates:normal;font-variant-east-asian:normal;font-feature-settings:normal;font-variation-settings:normal;text-indent:0;text-align:start;text-decoration:none;text-decoration-line:none;text-decoration-style:solid;text-decoration-color:#000000;letter-spacing:normal;word-spacing:normal;text-transform:none;writing-mode:lr-tb;direction:ltr;text-orientation:mixed;dominant-baseline:auto;baseline-shift:baseline;text-anchor:start;white-space:normal;shape-padding:0;shape-margin:0;inline-size:0;clip-rule:nonzero;display:inline;overflow:visible;visibility:visible;opacity:1;isolation:auto;mix-blend-mode:normal;color-interpolation:sRGB;color-interpolation-filters:linearRGB;solid-color:#000000;solid-opacity:1;vector-effect:none;fill:#000000;fill-opacity:1;fill-rule:nonzero;stroke:none;stroke-linecap:butt;stroke-linejoin:miter;stroke-miterlimit:4;stroke-dasharray:none;stroke-dashoffset:0;stroke-opacity:1;color-rendering:auto;image-rendering:auto;shape-rendering:auto;text-rendering:auto;enable-background:accumulate;stop-color:#000000;stop-opacity:1"
       d="m 8.0019531,267.0293 c -0.7307513,0.0248 -1.5455277,0.22344 -2.2246093,0.50781 -0.8723767,0.36533 -1.6169213,0.89445 -2.109375,1.36719 -0.5893302,0.5657 -1.944457,1.84667 -2.9492188,5.1289 -1.03512554,3.3814 -1.02384843,7.72095 -0.96875,8.8125 0.0348715,0.69074 0.17569736,1.88625 0.41992188,2.79688 0.23825565,0.88846 0.40810437,1.41122 0.63671874,2.01758 0.56247178,1.49192 1.44625248,2.85831 1.57617188,3.0625 0.1398489,0.21979 0.073932,0.0954 0.076172,0.10742 0.00224,0.012 0.027381,0.19992 -0.1230469,0.67969 -0.2123817,0.67735 -0.3546182,1.16736 -0.4140625,1.64648 -0.059444,0.47912 0.00348,0.98108 0.1738281,1.38867 0.1847593,0.44216 0.8851724,1.32057 2.1210938,1.49805 0.7983132,0.11455 1.6795256,0.14936 2.4199219,-0.0137 0.1686287,-0.037 0.6162088,-0.15997 1.0488281,-0.56641 0.3922951,-0.36856 0.6703793,-1.03952 0.7597656,-1.82422 0.1355928,-0.0211 0.3147347,-0.003 0.7109375,0.082 0.4179343,0.0897 1.0150339,0.22125 1.7714839,0.20508 1.411792,-0.0302 2.177581,-0.22236 2.201172,-0.2168 -0.0034,-7.9e-4 -0.09179,-0.12481 -0.02539,0.0527 0.0664,0.17754 0.138014,0.60272 0.167968,1.17187 0.02971,0.56448 0.326941,1.08883 0.6875,1.39258 0.36056,0.30375 0.745451,0.44002 1.082032,0.52149 0.652389,0.1579 1.193472,0.10657 1.228515,0.10351 0.05869,0.002 0.36552,0.0157 0.798828,-0.0586 0.472531,-0.081 1.139496,-0.2116 1.623047,-0.89453 0.503215,-0.71053 0.432272,-1.34296 0.447266,-1.61914 0.19112,0.16452 0.328602,0.3021 0.640625,0.50586 0.786438,0.51349 1.764212,0.94507 3.023437,1.16015 0.581127,0.0993 1.143884,0.0819 1.669922,-0.0781 0.526038,-0.15999 1.137263,-0.51524 1.31836,-1.24805 0.08918,-0.36093 -0.0095,-0.7724 -0.166016,-1.02344 -0.156541,-0.25104 -0.335283,-0.39031 -0.488281,-0.49609 -0.305997,-0.21156 -0.585806,-0.31299 -0.652344,-0.34375 l -0.0059,-0.002 -0.0059,-0.002 c -0.783356,-0.35093 -1.19293,-0.63719 -1.466797,-0.96094 -0.272137,-0.3217 -0.465816,-0.75069 -0.669921,-1.51171 -0.293163,-1.27125 -0.330759,-2.27487 -0.539063,-3.39649 -0.209626,-1.12873 -0.629618,-2.3396 -1.630859,-3.74414 -1.7602,-2.46911 -4.73274,-4.03889 -8.078125,-4.31055 -1.636098,-0.13284 -2.8587143,0.11317 -3.7871097,0.28907 -0.9283953,0.17589 -1.4917558,0.26728 -2.1875,0.0508 0.097461,0.0303 0.1302778,0.13552 0.078125,-0.0215 -0.052153,-0.157 -0.097606,-0.49068 -0.09375,-0.875 0.00771,-0.76863 0.1750361,-1.73066 0.2910157,-2.30078 0.2356658,-1.15841 0.4934744,-2.13421 0.7558593,-2.80273 l 0.00195,-0.008 0.00391,-0.008 c 0,0 0.051945,-0.0977 0.1132813,-0.15429 0.061336,-0.0566 -0.068187,-0.10538 0.2167969,0.008 0.9144706,0.36316 1.8616091,0.46232 2.7285155,0.2207 0.866907,-0.24162 1.640209,-0.8777 2.00586,-1.77148 0.345892,-0.84548 0.304303,-1.7291 -0.0078,-2.42188 -0.312116,-0.69277 -0.849821,-1.20006 -1.455078,-1.50976 -0.8460605,-0.43293 -1.6622465,-0.63047 -2.7500002,-0.59375 z m 0.068359,1.99804 c 0.8943483,-0.0302 1.0864891,0.0265 1.7714844,0.37696 0.2302015,0.11779 0.4401435,0.32493 0.5410155,0.54882 0.100873,0.2239 0.138296,0.45797 -0.01953,0.84376 -0.14032,0.34299 -0.337937,0.50554 -0.6894533,0.60351 -0.3515156,0.098 -0.8723612,0.0771 -1.4550781,-0.1543 -0.9040379,-0.35904 -1.8506595,-0.0433 -2.3105469,0.38086 -0.4569925,0.42145 -0.6248045,0.91174 -0.6269531,0.91797 -0.3358479,0.85753 -0.6061717,1.91114 -0.8535156,3.12696 -0.1258319,0.61854 -0.3198206,1.65726 -0.3300782,2.67968 -0.00513,0.51121 0.027129,1.01908 0.1953126,1.52539 0.1681833,0.50631 0.563872,1.09457 1.2265624,1.30078 1.172507,0.36486 2.2032424,0.18568 3.1523438,0.006 0.9491014,-0.17981 1.8885854,-0.37258 3.2539064,-0.26171 2.819174,0.22892 5.24031,1.55337 6.611328,3.47656 0.851219,1.19409 1.118665,2.01067 1.292969,2.94922 0.559764,3.8246 0.943674,4.68834 1.872546,5.65853 0.928872,0.9702 1.802938,1.307 1.254959,1.307 -0.547979,0 -1.703086,-0.85519 -2.084549,-1.10426 -0.322783,-0.21077 -0.56154,-0.45136 -0.888672,-0.71289 -0.327132,-0.26152 -0.947602,-0.61182 -1.613281,-0.45312 -0.471537,0.11243 -0.916851,0.62637 -1.039063,1.00391 -0.122212,0.37753 -0.140296,0.70073 -0.173828,1.125 -0.02532,0.32039 -0.164028,0.76088 -0.09961,0.66992 0.07045,-0.0995 -0.08385,0.0382 -0.328125,0.0801 -0.244278,0.0419 -0.458985,0.0351 -0.458985,0.0351 l -0.05469,-0.002 -0.05469,0.004 c 0,0 -0.35688,0.0144 -0.65039,-0.0566 -0.138134,-0.0334 -0.225248,-0.0836 -0.248047,-0.0996 -0.03399,-0.63406 -0.08352,-1.19582 -0.28711,-1.74023 -0.206557,-0.55233 -0.718115,-1.14281 -1.388671,-1.30078 -1.042165,-0.24562 -1.579509,0.14004 -2.703125,0.16406 -0.511252,0.0109 -0.884086,-0.069 -1.3085945,-0.16016 -0.4245079,-0.0911 -0.9436083,-0.21812 -1.5664063,-0.0918 -0.769441,0.15603 -1.4453299,0.81045 -1.484375,1.68945 -0.020833,0.46952 -0.1387994,0.57664 -0.2089844,0.64258 -0.070185,0.0659 -0.1446437,0.0781 -0.109375,0.0703 -0.058704,0.0129 -1.2077378,0.058 -1.7070312,-0.0137 -0.6396506,-0.0919 -0.5040447,-0.15852 -0.5585938,-0.28906 -0.053397,-0.12777 -0.063822,-0.14005 -0.035156,-0.3711 0.028666,-0.23104 0.1355751,-0.64967 0.3378906,-1.29492 C 4.4535229,291.43968 4.5118177,290.92341 4.425763,290.463 4.339727,290.00248 4.064638,289.63952 4.0703125,289.64844 3.9318819,289.43088 3.135482,288.16923 2.6777344,286.95508 2.4658126,286.393 2.3296108,285.9754 2.1015625,285.125 c -0.1696521,-0.63257 -0.3305724,-1.88771 -0.3554687,-2.38086 -0.037794,-0.74874 0.00205,-5.24343 0.8847656,-8.12695 0.9130767,-2.98273 1.7599916,-3.63418 2.421875,-4.26953 0.2618692,-0.25139 0.9261217,-0.72534 1.4980468,-0.96485 0.3763816,-0.15761 1.2113362,-0.34502 1.5195309,-0.35547 z"
       id="path847-5"
       sodipodi:nodetypes="csssssssssssccscsscsssscscccssssscccscsssscssscccssssssccsssssscssssssssczzsssssscccscscsssssccsssscsssssscs" />
    <path
       style="color:#000000;font-style:normal;font-variant:normal;font-weight:normal;font-stretch:normal;font-size:medium;line-height:normal;font-family:sans-serif;font-variant-ligatures:normal;font-variant-position:normal;font-variant-caps:normal;font-variant-numeric:normal;font-variant-alternates:normal;font-variant-east-asian:normal;font-feature-settings:normal;font-variation-settings:normal;text-indent:0;text-align:start;text-decoration:none;text-decoration-line:none;text-decoration-style:solid;text-decoration-color:#000000;letter-spacing:normal;word-spacing:normal;text-transform:none;writing-mode:lr-tb;direction:ltr;text-orientation:mixed;dominant-baseline:auto;baseline-shift:baseline;text-anchor:start;white-space:normal;shape-padding:0;shape-margin:0;inline-size:0;clip-rule:nonzero;display:inline;overflow:visible;visibility:visible;isolation:auto;mix-blend-mode:normal;color-interpolation:sRGB;color-interpolation-filters:linearRGB;solid-color:#000000;solid-opacity:1;vector-effect:none;fill:#000000;fill-opacity:1;fill-rule:nonzero;stroke:none;stroke-linecap:round;stroke-linejoin:bevel;stroke-miterlimit:4;stroke-dasharray:none;stroke-dashoffset:0;stroke-opacity:1;paint-order:markers fill stroke;color-rendering:auto;image-rendering:auto;shape-rendering:auto;text-rendering:auto;enable-background:accumulate;stop-color:#000000;stop-opacity:1;opacity:1"
       d="M 7.7460938 274.28125 C 5.9000214 274.28125 4.3847656 275.79651 4.3847656 277.64258 C 4.3847656 279.48865 5.9000214 281.00391 7.7460938 281.00391 C 9.5921661 281.00391 11.107422 279.48865 11.107422 277.64258 C 11.107422 275.79651 9.5921661 274.28125 7.7460938 274.28125 z M 7.7460938 276.08008 C 8.6193739 276.08008 9.3085938 276.7693 9.3085938 277.64258 C 9.3085938 278.51586 8.6193739 279.20508 7.7460938 279.20508 C 6.8728136 279.20508 6.1835938 278.51586 6.1835938 277.64258 C 6.1835938 276.7693 6.8728136 276.08008 7.7460938 276.08008 z "
       id="path885" />
  </g>
</svg>
